# xmcd CD database file
#
# Track frame offsets:
#	150
#	13974
#	28771
#	42716
#	56342
#	69080
#	83702
#	98327
#	112331
#	127055
#	140707
#	160153
#	181473
#	202493
#	221566
#	235041
#	249175
#	261197
#
# Disc length: 3669 seconds
#
# Revision: 0
# Processed by: cddbd v1.5.2PL0 Copyright (c) Steve Scherf et al.
# Submitted via: CDex 1.51
#
DISCID=090e5312
DTITLE=Ben Webster - Complete 1943-1951 Small Group Recordings Disc 2
DYEAR=1900
DGENRE=Jazz
TTITLE0=Perdido
TTITLE1=I Surrender Dear
TTITLE2=Broke But Happy
TTITLE3=Blues on the Bayou
TTITLE4=Jumpin' with Judy
TTITLE5=Blues on the Delta
TTITLE6=Honeysuckle Rose
TTITLE7=I Surrender Dear
TTITLE8=Blue Skies
TTITLE9=Kat's Fur
TTITLE10=My Old Flame
TTITLE11=Conversing in Blue
TTITLE12=Th Sheik of Araby
TTITLE13=Limehouse Blues
TTITLE14=If Dreams Come True
TTITLE15=I can't get Started
TTITLE16=Stimpin' at the Savoy
TTITLE17=Blues Too
EXTD=
EXTT0=
EXTT1=
EXTT2=
EXTT3=
EXTT4=
EXTT5=
EXTT6=
EXTT7=
EXTT8=
EXTT9=
EXTT10=
EXTT11=
EXTT12=
EXTT13=
EXTT14=
EXTT15=
EXTT16=
EXTT17=
PLAYORDER=
